<svg width="24" height="24" viewBox="0 0 24 24" fill="none" xmlns="http://www.w3.org/2000/svg">
<path fill-rule="evenodd" clip-rule="evenodd" d="M12 2C6.5 2 2 6.5 2 12C2 17.5 6.5 22 12 22C17.5 22 22 17.5 22 12C22 6.5 17.5 2 12 2ZM12 20C7.6 20 4 16.4 4 12C4 7.6 7.6 4 12 4C16.4 4 20 7.6 20 12C20 16.4 16.4 20 12 20Z" fill="#575757"/>
<path d="M12.4 17.6004H11.6C11.4 17.6004 11.3 17.5004 11.3 17.3004V16.3004H11.2C10.5 16.3004 10 16.1004 9.6 15.7004C9.2 15.3004 9 14.8004 9 14.1004V13.8004C9 13.6004 9.1 13.5004 9.3 13.5004H10.4C10.6 13.5004 10.7 13.6004 10.7 13.8004V13.9004C10.7 14.2004 10.8 14.5004 10.9 14.6004C11 14.7004 11.3 14.8004 11.6 14.8004H12.1C12.4 14.8004 12.7 14.7004 12.8 14.6004C12.9 14.5004 13 14.2004 13 13.9004V13.7004C13 13.5004 12.9 13.3004 12.8 13.2004C12.7 13.1004 12.5 13.0004 12.3 12.9004C12.1 12.9004 11.8 12.8004 11.4 12.8004C10.9 12.8004 10.6 12.7004 10.4 12.6004C10.2 12.5004 9.9 12.4004 9.7 12.3004C9.2 12.0004 9 11.4004 9 10.4004V9.90039C9 9.20039 9.2 8.70039 9.6 8.30039C10 7.90039 10.5 7.70039 11.2 7.70039H11.3V6.70039C11.3 6.50039 11.4 6.40039 11.6 6.40039H12.4C12.6 6.40039 12.7 6.50039 12.7 6.70039V7.70039C13.3 7.70039 13.8 7.90039 14.2 8.30039C14.6 8.70039 14.7 9.20039 14.7 9.90039V10.2004C14.7 10.4004 14.6 10.5004 14.4 10.5004H13.3C13.1 10.5004 13 10.4004 13 10.2004V10.1004C13 9.80039 12.9 9.50039 12.8 9.40039C12.7 9.30039 12.4 9.20039 12.1 9.20039H11.7C11.3 9.20039 11.1 9.30039 11 9.40039C10.9 9.50039 10.8 9.80039 10.8 10.2004V10.5004C10.8 10.7004 10.9 10.8004 11 11.0004C11.1 11.2004 11.3 11.2004 11.4 11.2004C11.6 11.2004 11.9 11.3004 12.4 11.3004C12.9 11.3004 13.2 11.4004 13.4 11.5004C13.6 11.6004 13.9 11.7004 14.1 11.8004C14.6 12.1004 14.8 12.7004 14.8 13.6004V14.1004C14.8 14.8004 14.6 15.3004 14.2 15.7004C13.8 16.1004 13.3 16.3004 12.6 16.3004V17.3004C12.7 17.5004 12.6 17.6004 12.4 17.6004Z" fill="#575757"/>
</svg>
