<svg width="24" height="24" viewBox="0 0 24 24" fill="none" xmlns="http://www.w3.org/2000/svg">
<path d="M4.0645 19.6443C4.12353 19.7489 4.18256 19.8535 4.25635 19.9431C4.40392 20.1673 4.56626 20.3915 4.74335 20.6007C5.11229 21.0341 5.51075 21.4227 5.93872 21.7963C6.11581 21.9457 6.29291 22.0952 6.48476 22.2297C6.61758 22.3194 6.73564 22.424 6.86846 22.4987C7.13409 22.678 7.39973 22.8424 7.68013 23.0068H7.69488C7.73916 23.0367 7.79819 23.0666 7.84246 23.0815C8.12286 23.2161 8.4918 23.3356 8.80171 23.4851C8.72792 23.4402 8.63938 23.3804 8.55083 23.3207C8.60986 23.3506 8.68365 23.3954 8.75744 23.4552C8.77219 23.4701 8.78695 23.4851 8.81647 23.5C6.66185 21.4227 6.55854 18.5084 8.09334 16.8047C8.15237 16.745 8.2114 16.6702 8.27043 16.6105C8.5951 16.2966 8.96404 16.0426 9.40677 15.8483C10.7645 15.2355 11.5466 14.5032 11.9894 13.8606C12.0632 13.7411 12.1369 13.6365 12.196 13.5318C12.2255 13.4721 12.255 13.4123 12.2845 13.3525C12.2993 13.3226 12.314 13.2927 12.3288 13.2479C12.3878 13.1283 12.4173 13.0088 12.4616 12.9042C12.5206 12.7248 12.5502 12.5604 12.5649 12.4409C12.5944 12.2466 12.5797 12.127 12.5797 12.127C15.3541 15.1459 14.0259 17.7911 14.0259 17.7911C15.7673 17.283 15.5165 15.7736 15.5165 15.7736C15.5312 15.7885 15.5312 15.7885 15.546 15.8034C18.0105 19.0465 15.4427 22.0952 14.8524 22.7378C14.7786 22.8125 14.7343 22.8574 14.7343 22.8574C14.7343 22.8574 15.4131 22.9172 16.3576 22.6481C16.4314 22.6332 16.4905 22.6033 16.5642 22.5884C16.6823 22.5435 16.7856 22.5136 16.9037 22.4539C17.5235 22.1998 18.2171 21.7813 18.8664 21.0939C19.1026 20.8398 19.3387 20.5708 19.5601 20.242C19.6338 20.1374 19.7076 20.0179 19.7814 19.9133C19.8847 19.7638 19.9733 19.5845 20.0618 19.4201C20.2389 19.0763 20.416 18.7027 20.5636 18.2992C20.8292 17.5968 20.962 16.8795 20.9916 16.1771C21.0358 15.1907 20.903 14.2193 20.6669 13.3226C20.6078 13.1134 20.5488 12.9042 20.475 12.6949C19.7519 10.4532 18.527 8.80929 18.527 8.80929C17.8629 10.6475 16.9922 11.5292 16.9922 11.5292C17.6711 8.346 17.0512 6.05945 15.9444 4.43047C15.8706 4.32586 15.7968 4.22125 15.7231 4.11663C15.6493 4.01202 15.5607 3.90741 15.4722 3.80279C13.229 1.11274 9.70193 0.5 9.70193 0.5C9.87902 0.664392 10.0118 0.84373 10.1299 1.03801C10.8235 2.18876 10.4546 3.69818 9.77572 4.83398C9.24444 5.71572 8.53607 6.41813 7.78343 7.10559C7.63585 7.24009 7.48828 7.37459 7.32594 7.5091C7.03079 7.7781 6.72088 8.04711 6.42572 8.31611C4.99423 9.67609 3.79886 11.3051 3.2971 13.2479C2.78058 15.2206 2.92816 17.3577 3.81362 19.166C3.8874 19.3454 3.97595 19.4948 4.0645 19.6443Z" fill="#FFF"/>
</svg>
