<svg width="24" height="24" viewBox="0 0 24 24" fill="none" xmlns="http://www.w3.org/2000/svg">
<path d="M17.6603 6.34662C14.538 3.22051 9.47277 3.21741 6.34663 6.33963C3.22052 9.46194 3.21738 14.5273 6.33968 17.6534C9.46191 20.7795 14.5273 20.7826 17.6534 17.6603C20.7795 14.5381 20.7826 9.47272 17.6603 6.34662ZM13.117 17.0764C13.117 17.1998 13.017 17.2998 12.8936 17.2998H11.1064C10.9831 17.2998 10.883 17.1998 10.883 17.0764V10.4419C10.883 10.3185 10.9831 10.2185 11.1064 10.2185H12.8936C13.017 10.2185 13.117 10.3185 13.117 10.4419V17.0764ZM12 9.29142C11.2856 9.29142 10.7044 8.71025 10.7044 7.99581C10.7044 7.28146 11.2856 6.70017 12 6.70017C12.7145 6.70017 13.2957 7.28142 13.2957 7.99581C13.2957 8.71025 12.7144 9.29142 12 9.29142Z" fill="#575757"/>
</svg>
