<svg width="22" height="16" viewBox="0 0 22 16" fill="none" xmlns="http://www.w3.org/2000/svg">
<path d="M7.22067 15.5421L0.311325 8.63276C-0.103775 8.21766 -0.103775 7.54463 0.311325 7.12948L1.81456 5.6262C2.22966 5.21106 2.90274 5.21106 3.31784 5.6262L7.97231 10.2806L17.9417 0.311325C18.3568 -0.103775 19.0298 -0.103775 19.4449 0.311325L20.9482 1.81461C21.3633 2.22971 21.3633 2.90274 20.9482 3.31789L8.72395 15.5421C8.30881 15.9572 7.63577 15.9572 7.22067 15.5421Z" fill="#191919"/>
<mask id="mask0_2280_18764" style="mask-type:luminance" maskUnits="userSpaceOnUse" x="0" y="0" width="22" height="16">
<path d="M7.22067 15.5421L0.311325 8.63276C-0.103775 8.21766 -0.103775 7.54463 0.311325 7.12948L1.81456 5.6262C2.22966 5.21106 2.90274 5.21106 3.31784 5.6262L7.97231 10.2806L17.9417 0.311325C18.3568 -0.103775 19.0298 -0.103775 19.4449 0.311325L20.9482 1.81461C21.3633 2.22971 21.3633 2.90274 20.9482 3.31789L8.72395 15.5421C8.30881 15.9572 7.63577 15.9572 7.22067 15.5421Z" fill="white"/>
</mask>
<g mask="url(#mask0_2280_18764)">
<rect x="-2" y="-4" width="24" height="24" fill="#191919"/>
<rect x="-2" y="-4" width="24" height="24" fill="white"/>
<rect x="-2" y="-4" width="24" height="24" fill="#34AE4D"/>
</g>
</svg>
