<svg width="15" height="15" viewBox="0 0 15 15" fill="none" xmlns="http://www.w3.org/2000/svg">
<path d="M10.0783 7.30796L14.2335 3.1528C14.7434 2.64291 14.7434 1.81619 14.2335 1.30588L13.31 0.382422C12.8001 -0.127474 11.9734 -0.127474 11.4631 0.382422L7.30796 4.53758L3.1528 0.382422C2.64291 -0.127474 1.81619 -0.127474 1.30588 0.382422L0.382422 1.30588C-0.127474 1.81578 -0.127474 2.64249 0.382422 3.1528L4.53758 7.30796L0.382422 11.4631C-0.127474 11.973 -0.127474 12.7997 0.382422 13.31L1.30588 14.2335C1.81578 14.7434 2.64291 14.7434 3.1528 14.2335L7.30796 10.0783L11.4631 14.2335C11.973 14.7434 12.8001 14.7434 13.31 14.2335L14.2335 13.31C14.7434 12.8001 14.7434 11.9734 14.2335 11.4631L10.0783 7.30796Z" fill="#191919"/>
<mask id="mask0_2280_18774" style="mask-type:luminance" maskUnits="userSpaceOnUse" x="0" y="0" width="15" height="15">
<path d="M10.0783 7.30796L14.2335 3.1528C14.7434 2.64291 14.7434 1.81619 14.2335 1.30588L13.31 0.382422C12.8001 -0.127474 11.9734 -0.127474 11.4631 0.382422L7.30796 4.53758L3.1528 0.382422C2.64291 -0.127474 1.81619 -0.127474 1.30588 0.382422L0.382422 1.30588C-0.127474 1.81578 -0.127474 2.64249 0.382422 3.1528L4.53758 7.30796L0.382422 11.4631C-0.127474 11.973 -0.127474 12.7997 0.382422 13.31L1.30588 14.2335C1.81578 14.7434 2.64291 14.7434 3.1528 14.2335L7.30796 10.0783L11.4631 14.2335C11.973 14.7434 12.8001 14.7434 13.31 14.2335L14.2335 13.31C14.7434 12.8001 14.7434 11.9734 14.2335 11.4631L10.0783 7.30796Z" fill="white"/>
</mask>
<g mask="url(#mask0_2280_18774)">
<rect x="-5" y="-5" width="24" height="24" fill="#191919"/>
<rect x="-5" y="-5" width="24" height="24" fill="white"/>
<rect x="-5" y="-5" width="24" height="24" fill="#D3302E"/>
</g>
</svg>
