<svg width="23" height="22" viewBox="0 0 23 22" fill="none" xmlns="http://www.w3.org/2000/svg">
<path fill-rule="evenodd" clip-rule="evenodd" d="M15.0803 6.23668L21.158 7.12152C22.2479 7.27931 22.6847 8.62049 21.8941 9.38865L17.4965 13.6646L18.5358 19.7057C18.6836 20.569 17.9935 21.2587 17.2212 21.2587C17.0173 21.2587 16.8072 21.2105 16.6054 21.1046L11.1685 18.252L5.7311 21.1038C5.52889 21.2109 5.31837 21.2595 5.11366 21.2595C4.34217 21.2595 3.65332 20.5673 3.80114 19.7045L4.84169 13.6638L0.444872 9.38699C-0.345301 8.61882 0.0915158 7.27806 1.18148 7.12028L7.25954 6.23626L9.97636 0.739516C10.2213 0.244983 10.6943 0 11.1676 0C11.6439 0 12.1202 0.248304 12.3643 0.739516L15.0803 6.23668ZM15.3506 12.9687L16.103 12.2371L19.5348 8.89952L14.7917 8.209L13.7532 8.05785L13.289 7.1182L11.1701 2.82934L11.1689 15.9999L12.0982 16.4873L16.3389 18.7125L15.5283 14.0018L15.3506 12.9687Z" fill="#191919"/>
<mask id="mask0_230_1224" style="mask-type:luminance" maskUnits="userSpaceOnUse" x="0" y="0" width="23" height="22">
<path fill-rule="evenodd" clip-rule="evenodd" d="M15.0803 6.23668L21.158 7.12152C22.2479 7.27931 22.6847 8.62049 21.8941 9.38865L17.4965 13.6646L18.5358 19.7057C18.6836 20.569 17.9935 21.2587 17.2212 21.2587C17.0173 21.2587 16.8072 21.2105 16.6054 21.1046L11.1685 18.252L5.7311 21.1038C5.52889 21.2109 5.31837 21.2595 5.11366 21.2595C4.34217 21.2595 3.65332 20.5673 3.80114 19.7045L4.84169 13.6638L0.444872 9.38699C-0.345301 8.61882 0.0915157 7.27806 1.18148 7.12028L7.25954 6.23626L9.97636 0.739516C10.2213 0.244983 10.6943 0 11.1676 0C11.6439 0 12.1202 0.248304 12.3643 0.739516L15.0803 6.23668ZM15.3506 12.9687L16.103 12.2371L19.5348 8.89952L14.7917 8.209L13.7532 8.05785L13.289 7.1182L11.1701 2.82934L11.1689 15.9999L12.0982 16.4873L16.3389 18.7125L15.5283 14.0018L15.3506 12.9687Z" fill="white"/>
</mask>
<g mask="url(#mask0_230_1224)">
<rect x="-1" y="-1" width="24" height="24" fill="#191919"/>
<rect x="-1" y="-1" width="24" height="24" fill="white"/>
<rect x="-1" y="-1" width="24" height="24" fill="#E38527"/>
</g>
</svg>
